<svg width="60" height="33" viewBox="0 0 60 33" fill="none" xmlns="http://www.w3.org/2000/svg">
<rect width="60" height="30" transform="translate(0 3)" fill="white"/>
<path d="M3.648 13.084C3.088 13.084 2.584 12.988 2.136 12.796C1.688 12.596 1.336 12.316 1.08 11.956C0.824 11.596 0.696 11.176 0.696 10.696H2.16C2.192 11.056 2.332 11.352 2.58 11.584C2.836 11.816 3.192 11.932 3.648 11.932C4.12 11.932 4.488 11.82 4.752 11.596C5.016 11.364 5.148 11.068 5.148 10.708C5.148 10.428 5.064 10.2 4.896 10.024C4.736 9.848 4.532 9.712 4.284 9.616C4.044 9.52 3.708 9.416 3.276 9.304C2.732 9.16 2.288 9.016 1.944 8.872C1.608 8.72 1.32 8.488 1.08 8.176C0.84 7.864 0.72 7.448 0.72 6.928C0.72 6.448 0.84 6.028 1.08 5.668C1.32 5.308 1.656 5.032 2.088 4.84C2.52 4.648 3.02 4.552 3.588 4.552C4.396 4.552 5.056 4.756 5.568 5.164C6.088 5.564 6.376 6.116 6.432 6.82H4.92C4.896 6.516 4.752 6.256 4.488 6.04C4.224 5.824 3.876 5.716 3.444 5.716C3.052 5.716 2.732 5.816 2.484 6.016C2.236 6.216 2.112 6.504 2.112 6.88C2.112 7.136 2.188 7.348 2.34 7.516C2.5 7.676 2.7 7.804 2.94 7.9C3.18 7.996 3.508 8.1 3.924 8.212C4.476 8.364 4.924 8.516 5.268 8.668C5.62 8.82 5.916 9.056 6.156 9.376C6.404 9.688 6.528 10.108 6.528 10.636C6.528 11.06 6.412 11.46 6.18 11.836C5.956 12.212 5.624 12.516 5.184 12.748C4.752 12.972 4.24 13.084 3.648 13.084ZM11.5622 6.28C12.0662 6.28 12.5142 6.388 12.9062 6.604C13.3062 6.82 13.6182 7.14 13.8422 7.564C14.0742 7.988 14.1902 8.5 14.1902 9.1V13H12.8342V9.304C12.8342 8.712 12.6862 8.26 12.3902 7.948C12.0942 7.628 11.6902 7.468 11.1782 7.468C10.6662 7.468 10.2582 7.628 9.95419 7.948C9.65819 8.26 9.51019 8.712 9.51019 9.304V13H8.14219V4.12H9.51019V7.156C9.74219 6.876 10.0342 6.66 10.3862 6.508C10.7462 6.356 11.1382 6.28 11.5622 6.28ZM15.4792 9.664C15.4792 9 15.6152 8.412 15.8872 7.9C16.1672 7.388 16.5432 6.992 17.0152 6.712C17.4952 6.424 18.0232 6.28 18.5992 6.28C19.1192 6.28 19.5712 6.384 19.9552 6.592C20.3472 6.792 20.6592 7.044 20.8912 7.348V6.388H22.2712V13H20.8912V12.016C20.6592 12.328 20.3432 12.588 19.9432 12.796C19.5432 13.004 19.0872 13.108 18.5752 13.108C18.0072 13.108 17.4872 12.964 17.0152 12.676C16.5432 12.38 16.1672 11.972 15.8872 11.452C15.6152 10.924 15.4792 10.328 15.4792 9.664ZM20.8912 9.688C20.8912 9.232 20.7952 8.836 20.6032 8.5C20.4192 8.164 20.1752 7.908 19.8712 7.732C19.5672 7.556 19.2392 7.468 18.8872 7.468C18.5352 7.468 18.2072 7.556 17.9032 7.732C17.5992 7.9 17.3512 8.152 17.1592 8.488C16.9752 8.816 16.8832 9.208 16.8832 9.664C16.8832 10.12 16.9752 10.52 17.1592 10.864C17.3512 11.208 17.5992 11.472 17.9032 11.656C18.2152 11.832 18.5432 11.92 18.8872 11.92C19.2392 11.92 19.5672 11.832 19.8712 11.656C20.1752 11.48 20.4192 11.224 20.6032 10.888C20.7952 10.544 20.8912 10.144 20.8912 9.688ZM27.488 6.28C27.992 6.28 28.44 6.388 28.832 6.604C29.232 6.82 29.544 7.14 29.768 7.564C30 7.988 30.116 8.5 30.116 9.1V13H28.76V9.304C28.76 8.712 28.612 8.26 28.316 7.948C28.02 7.628 27.616 7.468 27.104 7.468C26.592 7.468 26.184 7.628 25.88 7.948C25.584 8.26 25.436 8.712 25.436 9.304V13H24.068V4.12H25.436V7.156C25.668 6.876 25.96 6.66 26.312 6.508C26.672 6.356 27.064 6.28 27.488 6.28ZM33.2289 7.348C33.4289 7.012 33.6929 6.752 34.0209 6.568C34.3569 6.376 34.7529 6.28 35.2089 6.28V7.696H34.8609C34.3249 7.696 33.9169 7.832 33.6369 8.104C33.3649 8.376 33.2289 8.848 33.2289 9.52V13H31.8609V6.388H33.2289V7.348ZM37.1624 5.512C36.9144 5.512 36.7064 5.428 36.5384 5.26C36.3704 5.092 36.2864 4.884 36.2864 4.636C36.2864 4.388 36.3704 4.18 36.5384 4.012C36.7064 3.844 36.9144 3.76 37.1624 3.76C37.4024 3.76 37.6064 3.844 37.7744 4.012C37.9424 4.18 38.0264 4.388 38.0264 4.636C38.0264 4.884 37.9424 5.092 37.7744 5.26C37.6064 5.428 37.4024 5.512 37.1624 5.512ZM37.8344 6.388V13H36.4664V6.388H37.8344ZM45.5825 6.388L41.5265 16.108H40.1105L41.4545 12.892L38.8505 6.388H40.3745L42.2345 11.428L44.1665 6.388H45.5825ZM46.1588 9.664C46.1588 9 46.2948 8.412 46.5668 7.9C46.8468 7.388 47.2228 6.992 47.6948 6.712C48.1748 6.424 48.7028 6.28 49.2788 6.28C49.7988 6.28 50.2508 6.384 50.6348 6.592C51.0268 6.792 51.3388 7.044 51.5708 7.348V6.388H52.9508V13H51.5708V12.016C51.3388 12.328 51.0228 12.588 50.6228 12.796C50.2228 13.004 49.7668 13.108 49.2548 13.108C48.6868 13.108 48.1668 12.964 47.6948 12.676C47.2228 12.38 46.8468 11.972 46.5668 11.452C46.2948 10.924 46.1588 10.328 46.1588 9.664ZM51.5708 9.688C51.5708 9.232 51.4748 8.836 51.2828 8.5C51.0988 8.164 50.8548 7.908 50.5508 7.732C50.2468 7.556 49.9188 7.468 49.5668 7.468C49.2148 7.468 48.8868 7.556 48.5828 7.732C48.2788 7.9 48.0308 8.152 47.8388 8.488C47.6548 8.816 47.5628 9.208 47.5628 9.664C47.5628 10.12 47.6548 10.52 47.8388 10.864C48.0308 11.208 48.2788 11.472 48.5828 11.656C48.8948 11.832 49.2228 11.92 49.5668 11.92C49.9188 11.92 50.2468 11.832 50.5508 11.656C50.8548 11.48 51.0988 11.224 51.2828 10.888C51.4748 10.544 51.5708 10.144 51.5708 9.688ZM56.1157 7.348C56.3157 7.012 56.5797 6.752 56.9077 6.568C57.2437 6.376 57.6397 6.28 58.0957 6.28V7.696H57.7477C57.2117 7.696 56.8037 7.832 56.5237 8.104C56.2517 8.376 56.1157 8.848 56.1157 9.52V13H54.7477V6.388H56.1157V7.348ZM7.752 30H6.384L2.268 23.772V30H0.9V21.648H2.268L6.384 27.864V21.648H7.752V30ZM9.09244 26.664C9.09244 26 9.22844 25.412 9.50044 24.9C9.78044 24.388 10.1564 23.992 10.6284 23.712C11.1084 23.424 11.6364 23.28 12.2124 23.28C12.7324 23.28 13.1844 23.384 13.5684 23.592C13.9604 23.792 14.2724 24.044 14.5044 24.348V23.388H15.8844V30H14.5044V29.016C14.2724 29.328 13.9564 29.588 13.5564 29.796C13.1564 30.004 12.7004 30.108 12.1884 30.108C11.6204 30.108 11.1004 29.964 10.6284 29.676C10.1564 29.38 9.78044 28.972 9.50044 28.452C9.22844 27.924 9.09244 27.328 9.09244 26.664ZM14.5044 26.688C14.5044 26.232 14.4084 25.836 14.2164 25.5C14.0324 25.164 13.7884 24.908 13.4844 24.732C13.1804 24.556 12.8524 24.468 12.5004 24.468C12.1484 24.468 11.8204 24.556 11.5164 24.732C11.2124 24.9 10.9644 25.152 10.7724 25.488C10.5884 25.816 10.4964 26.208 10.4964 26.664C10.4964 27.12 10.5884 27.52 10.7724 27.864C10.9644 28.208 11.2124 28.472 11.5164 28.656C11.8284 28.832 12.1564 28.92 12.5004 28.92C12.8524 28.92 13.1804 28.832 13.4844 28.656C13.7884 28.48 14.0324 28.224 14.2164 27.888C14.4084 27.544 14.5044 27.144 14.5044 26.688ZM19.0493 24.372C19.2813 24.052 19.5973 23.792 19.9973 23.592C20.4053 23.384 20.8573 23.28 21.3533 23.28C21.9373 23.28 22.4653 23.42 22.9373 23.7C23.4093 23.98 23.7813 24.38 24.0533 24.9C24.3253 25.412 24.4613 26 24.4613 26.664C24.4613 27.328 24.3253 27.924 24.0533 28.452C23.7813 28.972 23.4053 29.38 22.9253 29.676C22.4533 29.964 21.9293 30.108 21.3533 30.108C20.8413 30.108 20.3853 30.008 19.9853 29.808C19.5933 29.608 19.2813 29.352 19.0493 29.04V30H17.6813V21.12H19.0493V24.372ZM23.0693 26.664C23.0693 26.208 22.9733 25.816 22.7812 25.488C22.5973 25.152 22.3493 24.9 22.0373 24.732C21.7333 24.556 21.4053 24.468 21.0533 24.468C20.7093 24.468 20.3813 24.556 20.0693 24.732C19.7653 24.908 19.5173 25.164 19.3253 25.5C19.1413 25.836 19.0493 26.232 19.0493 26.688C19.0493 27.144 19.1413 27.544 19.3253 27.888C19.5173 28.224 19.7653 28.48 20.0693 28.656C20.3813 28.832 20.7093 28.92 21.0533 28.92C21.4053 28.92 21.7333 28.832 22.0373 28.656C22.3493 28.472 22.5973 28.208 22.7812 27.864C22.9733 27.52 23.0693 27.12 23.0693 26.664ZM26.5101 22.512C26.2621 22.512 26.0541 22.428 25.8861 22.26C25.7181 22.092 25.6341 21.884 25.6341 21.636C25.6341 21.388 25.7181 21.18 25.8861 21.012C26.0541 20.844 26.2621 20.76 26.5101 20.76C26.7501 20.76 26.9541 20.844 27.1221 21.012C27.2901 21.18 27.3741 21.388 27.3741 21.636C27.3741 21.884 27.2901 22.092 27.1221 22.26C26.9541 22.428 26.7501 22.512 26.5101 22.512ZM27.1821 23.388V30H25.8141V23.388H27.1821ZM30.3461 21.12V30H28.9781V21.12H30.3461ZM32.6942 30.084C32.4462 30.084 32.2382 30 32.0702 29.832C31.9022 29.664 31.8182 29.456 31.8182 29.208C31.8182 28.96 31.9022 28.752 32.0702 28.584C32.2382 28.416 32.4462 28.332 32.6942 28.332C32.9342 28.332 33.1382 28.416 33.3062 28.584C33.4742 28.752 33.5582 28.96 33.5582 29.208C33.5582 29.456 33.4742 29.664 33.3062 29.832C33.1382 30 32.9342 30.084 32.6942 30.084Z" fill="black"/>
</svg>
